# xmcd
#
# Track frame offsets: 
#        150
#        9146
#        24112
#        42321
#        58221
#
# Disc length: 1109 seconds
#
# Revision: 0
# Processed by: cddbd v1.5.2PL0 Copyright (c) Steve Scherf et al.
# Submitted via: ExactAudioCopy v1.0b4
#
DISCID=2f045305
DTITLE=Luca Kiella - Figure It Out
DYEAR=2019
DGENRE=Blues
TTITLE0=Ten O'Clock Blues
TTITLE1=Unnecessarily Mercenary
TTITLE2=Figure It Out
TTITLE3=I Can't Stop Loving You
TTITLE4=So Many Questions
EXTD=
EXTT0=
EXTT1=
EXTT2=
EXTT3=
EXTT4=
PLAYORDER=
